<svg width="35" height="35" viewBox="0 0 67 74" fill="none" xmlns="http://www.w3.org/2000/svg">
<path d="M33.5 8.52522L39.3888 28.4316L39.6007 29.1479H40.3477H59.6509L43.956 41.6725L43.4299 42.0924L43.6208 42.7378L49.5669 62.838L34.1237 50.5142L33.5 50.0165L32.8763 50.5142L17.4331 62.838L23.3791 42.7378L23.5701 42.0924L23.044 41.6725L7.34912 29.1479H26.6523H27.3993L27.6112 28.4316L33.5 8.52522Z" stroke="white" stroke-width="2"/>
<path d="M65.5 37C65.5 56.7498 51.0363 72.5 33.5 72.5C15.9637 72.5 1.5 56.7498 1.5 37C1.5 17.2502 15.9637 1.5 33.5 1.5C51.0363 1.5 65.5 17.2502 65.5 37Z" stroke="white" stroke-width="3"/>
</svg>
